<svg id="Capa_1" enable-background="new 0 0 512 512" height="512" viewBox="0 0 512 512" width="512" xmlns="http://www.w3.org/2000/svg" xmlns:xlink="http://www.w3.org/1999/xlink"><linearGradient id="SVGID_1_" gradientUnits="userSpaceOnUse" x1="256" x2="256" y1="512" y2="0"><stop offset="0" stop-color="#c3ffe8"/><stop offset=".9973" stop-color="#f0fff4"/></linearGradient><linearGradient id="SVGID_2_" gradientUnits="userSpaceOnUse" x1="256" x2="256" y1="353.5" y2="158.5"><stop offset="0" stop-color="#9cffac"/><stop offset="1" stop-color="#00b59c"/></linearGradient><g><g><circle cx="256" cy="256" fill="url(#SVGID_1_)" r="256"/></g><g><g><path d="m380.353 176.227c-11.33 0-20.963 7.122-24.812 17.089-22.713-1.602-38.332-10.027-53.1-18.569-14.451-8.353-28.087-16.247-46.441-16.247s-31.99 7.894-46.441 16.247c-14.768 8.542-30.387 16.967-53.1 18.569-3.848-9.967-13.482-17.089-24.812-17.089-14.694 0-26.647 11.928-26.647 26.591v17.727c0 .012.007.022.007.032 0 .031.471 2.885.72 3.462.001.003.001.008.002.011.521 1.229 13.306 30.599 36.623 61.076.004.006.012.008.016.013.001.001 0 .003.001.004 34.349 44.718 73.643 68.357 113.631 68.357 65.849 0 108.441-63.541 113.633-68.36.064-.107 24.031-31.313 36.639-61.089.001-.003.001-.008.002-.011.245-.569.727-3.454.727-3.495v-17.727c-.001-14.663-11.954-26.591-26.648-26.591zm-239.824 74.961c-9.657-15.512-15.798-28.253-17.765-32.538v-15.833c0-4.89 3.99-8.864 8.882-8.864s8.882 3.973 8.882 8.864v48.371zm133.236 13.676h-8.882v8.864c0 4.899-3.973 8.864-8.882 8.864s-8.882-3.964-8.882-8.864v-8.864h-8.882c-4.91 0-8.882-3.965-8.882-8.864s3.973-8.864 8.882-8.864h8.882v-8.864c0-4.899 3.973-8.864 8.882-8.864s8.882 3.964 8.882 8.864v8.864h8.882c4.91 0 8.882 3.965 8.882 8.864s-3.973 8.864-8.882 8.864zm115.47-46.213c-1.967 4.285-8.107 17.025-17.765 32.538v-48.37c0-4.89 3.99-8.864 8.882-8.864s8.882 3.973 8.882 8.864v15.832z" fill="url(#SVGID_2_)"/></g></g></g></svg>